<svg width="32" height="32" viewBox="0 0 18 18" xmlns="http://www.w3.org/2000/svg">
    <path d="M4.49558 10.5C4.08186 10.5 3.72917 10.3527 3.4375 10.0581C3.14583 9.76346 3 9.40929 3 8.99558C3 8.58186 3.14731 8.22917 3.44192 7.9375C3.73654 7.64583 4.09071 7.5 4.50442 7.5C4.91814 7.5 5.27083 7.64731 5.5625 7.94192C5.85417 8.23654 6 8.59071 6 9.00442C6 9.41814 5.85269 9.77083 5.55808 10.0625C5.26346 10.3542 4.90929 10.5 4.49558 10.5ZM8.99558 10.5C8.58186 10.5 8.22917 10.3527 7.9375 10.0581C7.64583 9.76346 7.5 9.40929 7.5 8.99558C7.5 8.58186 7.64731 8.22917 7.94192 7.9375C8.23654 7.64583 8.59071 7.5 9.00442 7.5C9.41814 7.5 9.77083 7.64731 10.0625 7.94192C10.3542 8.23654 10.5 8.59071 10.5 9.00442C10.5 9.41814 10.3527 9.77083 10.0581 10.0625C9.76346 10.3542 9.40929 10.5 8.99558 10.5ZM13.4956 10.5C13.0819 10.5 12.7292 10.3527 12.4375 10.0581C12.1458 9.76346 12 9.40929 12 8.99558C12 8.58186 12.1473 8.22917 12.4419 7.9375C12.7365 7.64583 13.0907 7.5 13.5044 7.5C13.9181 7.5 14.2708 7.64731 14.5625 7.94192C14.8542 8.23654 15 8.59071 15 9.00442C15 9.41814 14.8527 9.77083 14.5581 10.0625C14.2635 10.3542 13.9093 10.5 13.4956 10.5Z"
          fill="#757575"/>
</svg>
