<svg width="16" height="16" viewBox="0 0 16 16" fill="none" xmlns="http://www.w3.org/2000/svg">
<path d="M13.6875 14.8958L9.125 10.3333C8.66667 10.6806 8.17014 10.941 7.63542 11.1146C7.10069 11.2882 6.54167 11.375 5.95833 11.375C4.44444 11.375 3.15625 10.8507 2.09375 9.80208C1.03125 8.75347 0.5 7.47222 0.5 5.95833C0.5 4.44444 1.03125 3.15625 2.09375 2.09375C3.15625 1.03125 4.44444 0.5 5.95833 0.5C7.47222 0.5 8.75347 1.03125 9.80208 2.09375C10.8507 3.15625 11.375 4.44444 11.375 5.95833C11.375 6.54167 11.2917 7.10069 11.125 7.63542C10.9583 8.17014 10.6944 8.65972 10.3333 9.10417L14.9167 13.7083C15.0833 13.875 15.1632 14.0729 15.1562 14.3021C15.1493 14.5312 15.0625 14.7292 14.8958 14.8958C14.7292 15.0625 14.5278 15.1458 14.2917 15.1458C14.0556 15.1458 13.8542 15.0625 13.6875 14.8958ZM5.95833 9.625C6.97222 9.625 7.83681 9.26736 8.55208 8.55208C9.26736 7.83681 9.625 6.97222 9.625 5.95833C9.625 4.93056 9.27083 4.05556 8.5625 3.33333C7.85417 2.61111 6.98611 2.25 5.95833 2.25C4.93056 2.25 4.05556 2.61111 3.33333 3.33333C2.61111 4.05556 2.25 4.93056 2.25 5.95833C2.25 6.98611 2.61111 7.85417 3.33333 8.5625C4.05556 9.27083 4.93056 9.625 5.95833 9.625Z" fill="#757575"/>
</svg>
